<?xml version="1.0" encoding="UTF-8" standalone="no"?>
<svg
   width="300"
   height="300"
   fill="#000000"
   viewBox="0 0 400 400"
   version="1.1"
   id="svg18"
   xmlns="http://www.w3.org/2000/svg"
   xmlns:svg="http://www.w3.org/2000/svg">
  <defs
     id="defs22" />
  <path
     id="path3573"
     style="fill:#ffffff;stroke-width:1.89358"
     d="M 200,0 A 200,200 0 0 0 0,200 200,200 0 0 0 200,400 200,200 0 0 0 400,200 200,200 0 0 0 200,0 Z m -66,96 h 144 c 8.72559,0 16,7.27441 16,16 v 176 c 0,8.72559 -7.27441,16 -16,16 H 134 c -8.72559,0 -16,-7.27441 -16,-16 v -20 h -16 a 8,8 0 0 1 -8,-8 8,8 0 0 1 8,-8 h 16 v -24 h -16 a 8,8 0 0 1 -8,-8 8,8 0 0 1 8,-8 h 16 v -24 h -16 a 8,8 0 0 1 -8,-8 8,8 0 0 1 8,-8 h 16 v -24 h -16 a 8,8 0 0 1 -8,-8 8,8 0 0 1 8,-8 h 16 v -20 c 0,-8.72559 7.27441,-16 16,-16 z m 0,16 v 28 40 40 40 28 H 278 V 112 Z m 72,32 c 21.99657,0 40,18.00343 40,40 0,11.68962 -5.08485,22.25193 -13.15104,29.58333 10.50907,4.4632 20.08354,11.65913 27.55208,21.61719 a 8,8 0 0 1 -1.60156,11.20052 8,8 0 0 1 -11.20052,-1.60156 C 237.63074,231.50852 223.03025,224.56458 208.21094,223.9349 207.47831,223.97536 206.74226,224 206,224 c -0.74226,0 -1.47831,-0.0246 -2.21094,-0.0651 -14.81931,0.62968 -29.4198,7.57362 -39.38802,20.86458 a 8,8 0 0 1 -11.20052,1.60156 8,8 0 0 1 -1.60156,-11.20052 c 7.46854,-9.95806 17.04301,-17.15399 27.55208,-21.61719 C 171.08485,206.25193 166,195.68962 166,184 c 0,-21.99657 18.00343,-40 40,-40 z m 0,16 c -13.34956,0 -24,10.65044 -24,24 0,13.34956 10.65044,24 24,24 13.34956,0 24,-10.65044 24,-24 0,-13.34956 -10.65044,-24 -24,-24 z" />
</svg>
