<svg xmlns="http://www.w3.org/2000/svg" width="300" height="300" viewBox="0 0 400 400"><path d="M200 0a200 200 0 1 0 0 400 200 200 0 1 0 0-400zm-66 96h144c8.726 0 16 7.274 16 16v176c0 8.726-7.274 16-16 16H134c-8.726 0-16-7.274-16-16v-20h-16a8 8 0 1 1 0-16h16v-24h-16a8 8 0 1 1 0-16h16v-24h-16a8 8 0 1 1 0-16h16v-24h-16a8 8 0 1 1 0-16h16v-20c0-8.726 7.274-16 16-16zm0 16v28 40 40 40 28h144V112zm72 32c21.997 0 40 18.003 40 40 0 11.69-5.085 22.252-13.151 29.583 10.509 4.463 20.084 11.659 27.552 21.617a8 8 0 1 1-12.802 9.599c-9.968-13.291-24.569-20.235-39.388-20.865A40.05 40.05 0 0 1 206 224a40.01 40.01 0 0 1-2.211-.065c-14.819.63-29.42 7.574-39.388 20.865a8 8 0 0 1-12.802-9.599c7.469-9.958 17.043-17.154 27.552-21.617C171.085 206.252 166 195.69 166 184c0-21.997 18.003-40 40-40zm0 16c-13.35 0-24 10.65-24 24s10.65 24 24 24 24-10.65 24-24-10.65-24-24-24z"/></svg>