<svg xmlns="http://www.w3.org/2000/svg" width="300" height="300" viewBox="0 0 400 400"><path d="M200 0a200 200 0 1 0 0 400 200 200 0 1 0 0-400zm-22.667 104h48c13.16 0 24 10.84 24 24v8h40c8.726 0 16 7.274 16 16v128c0 8.726-7.274 16-16 16h-176c-8.726 0-16-7.274-16-16V152c0-8.726 7.274-16 16-16h40v-8c0-13.16 10.84-24 24-24zm0 16c-4.513 0-8 3.487-8 8v8h64v-8c0-4.513-3.487-8-8-8h-48zm-64 32v41.604c26.951 14.749 57.207 22.476 87.979 22.396a8.001 8.001 0 0 1 .031 0c30.771.037 61.02-7.688 87.99-22.401V152h-176zm76 32h24a8 8 0 1 1 0 16h-24a8 8 0 1 1 0-16zm100 27.622c-27.328 13.406-57.421 20.409-87.979 20.378-30.576.08-60.692-6.92-88.021-20.359V280h176v-68.378z"/></svg>