<?xml version="1.0" encoding="UTF-8" standalone="no"?>
<svg
   width="300"
   height="300"
   fill="#000000"
   viewBox="0 0 400 400"
   version="1.1"
   id="svg368"
   sodipodi:docname="briefcase.svg"
   inkscape:version="1.2.2 (b0a8486541, 2022-12-01)"
   xmlns:inkscape="http://www.inkscape.org/namespaces/inkscape"
   xmlns:sodipodi="http://sodipodi.sourceforge.net/DTD/sodipodi-0.dtd"
   xmlns="http://www.w3.org/2000/svg"
   xmlns:svg="http://www.w3.org/2000/svg">
  <defs
     id="defs372" />
  <sodipodi:namedview
     id="namedview370"
     pagecolor="#505050"
     bordercolor="#eeeeee"
     borderopacity="1"
     inkscape:showpageshadow="0"
     inkscape:pageopacity="0"
     inkscape:pagecheckerboard="0"
     inkscape:deskcolor="#505050"
     showgrid="false"
     inkscape:zoom="2.2838542"
     inkscape:cx="106.39909"
     inkscape:cy="114.71836"
     inkscape:window-width="1920"
     inkscape:window-height="1057"
     inkscape:window-x="-8"
     inkscape:window-y="-8"
     inkscape:window-maximized="1"
     inkscape:current-layer="svg368" />
  <path
     id="path391"
     style="fill:#ffffff;stroke-width:1.45598"
     d="M 200 0 A 200 200 0 0 0 0 200 A 200 200 0 0 0 200 400 A 200 200 0 0 0 400 200 A 200 200 0 0 0 200 0 z M 177.33333 104 L 225.33333 104 C 238.49337 104 249.33333 114.83996 249.33333 128 L 249.33333 136 L 289.33333 136 C 298.05892 136 305.33333 143.27441 305.33333 152 L 305.33333 280 C 305.33333 288.72559 298.05892 296 289.33333 296 L 113.33333 296 C 104.60774 296 97.333333 288.72559 97.333333 280 L 97.333333 152 C 97.333333 143.27441 104.60774 136 113.33333 136 L 153.33333 136 L 153.33333 128 C 153.33333 114.83996 164.1733 104 177.33333 104 z M 177.33333 120 C 172.82032 120 169.33333 123.48697 169.33333 128 L 169.33333 136 L 233.33333 136 L 233.33333 128 C 233.33333 123.48697 229.84636 120 225.33333 120 L 177.33333 120 z M 113.33333 152 L 113.33333 193.60417 C 140.2842 208.35269 170.54067 216.0801 201.3125 216 A 8.0008 8.0008 0 0 1 201.34375 216 C 232.11446 216.03659 262.36368 208.31154 289.33333 193.59896 L 289.33333 152 L 113.33333 152 z M 189.33333 184 L 213.33333 184 A 8 8 0 0 1 221.33333 192 A 8 8 0 0 1 213.33333 200 L 189.33333 200 A 8 8 0 0 1 181.33333 192 A 8 8 0 0 1 189.33333 184 z M 289.33333 211.6224 C 262.00568 225.02817 231.91251 232.0315 201.35417 232 C 170.77813 232.07959 140.66244 225.07994 113.33333 211.64062 L 113.33333 280 L 289.33333 280 L 289.33333 211.6224 z " />
</svg>
