<?xml version="1.0" encoding="UTF-8" standalone="no"?>
<svg
   width="300"
   height="300"
   fill="#000000"
   viewBox="0 0 2400 2400"
   version="1.1"
   id="svg2928"
   sodipodi:docname="certificate.svg"
   xml:space="preserve"
   xmlns:inkscape="http://www.inkscape.org/namespaces/inkscape"
   xmlns:sodipodi="http://sodipodi.sourceforge.net/DTD/sodipodi-0.dtd"
   xmlns="http://www.w3.org/2000/svg"
   xmlns:svg="http://www.w3.org/2000/svg"><defs
     id="defs2932" /><sodipodi:namedview
     id="namedview2930"
     pagecolor="#ffffff"
     bordercolor="#000000"
     borderopacity="0.25"
     inkscape:showpageshadow="2"
     inkscape:pageopacity="0.0"
     inkscape:pagecheckerboard="0"
     inkscape:deskcolor="#d1d1d1"
     showgrid="false" /><path
     id="path4628"
     style="fill:#ffffff;stroke-width:250.504"
     d="M 1200,3.515625e-5 A 1200,1200 0 0 0 -5.8593751e-6,1200 1200,1200 0 0 0 1200,2400 1200,1200 0 0 0 2400,1200 1200,1200 0 0 0 1200,3.515625e-5 Z M 582.85939,660.00004 H 1714.2812 a 102.85714,103.3328 0 0 1 102.8594,103.3281 51.4297,51.667538 0 0 1 -102.8594,0 H 582.85939 V 1590 h 565.71871 a 51.42857,51.666402 0 0 1 51.4219,51.6562 51.42857,51.666402 0 0 1 -51.4219,51.6719 H 582.85939 A 102.85714,103.3328 0 0 1 479.99999,1590 V 763.32814 a 102.85714,103.3328 0 0 1 102.8594,-103.3281 z m 978.84371,206.3594 A 359.99999,361.66482 0 0 1 1920,1228.3281 358.77856,360.43774 0 0 1 1817.1406,1481.1094 v 367.2187 a 51.42857,51.666402 0 0 1 -74.4218,46.2188 L 1560,1802.7188 l -182.7188,91.8281 a 51.42857,51.666402 0 0 1 -74.4218,-46.2188 V 1481.1094 A 359.99999,361.66482 0 0 1 1561.7031,866.35944 Z M 1560,970.00004 A 257.14285,258.33201 0 0 0 1302.8594,1228.3281 257.14285,258.33201 0 1 0 1560,970.00004 Z m -771.42191,51.67186 h 257.14071 a 51.42857,51.666402 0 0 1 51.4218,51.6562 A 51.42857,51.666402 0 0 1 1045.7188,1125 H 788.57809 a 51.42857,51.666402 0 0 1 0,-103.3281 z m 0,206.6562 h 257.14071 a 51.42857,51.666402 0 0 1 51.4218,51.6719 51.42857,51.666402 0 0 1 -51.4218,51.6562 H 788.57809 a 51.42857,51.666402 0 0 1 0,-103.3281 z m 617.14071,326.75 v 209.6875 L 1537,1698.7812 a 51.42857,51.666402 0 0 1 46,0 l 131.2812,65.9844 v -209.6875 a 359.61427,361.27731 0 0 1 -308.5624,0 z"
     inkscape:export-filename="../../home/baltimoore/Documents/Projects/GitHub_profile/cv/img/icons/certificate-circled.svg"
     inkscape:export-xdpi="96"
     inkscape:export-ydpi="96" /></svg>
