<svg xmlns="http://www.w3.org/2000/svg" width="300" height="300" viewBox="0 0 2400 2400"><path d="M1200 0a1200 1200 0 0 0 0 2400 1200 1200 0 0 0 0-2400zM582.859 660h1131.422a102.857 103.333 0 0 1 102.859 103.328 51.43 51.668 0 0 1-102.859 0H582.859V1590h565.719a51.429 51.666 0 0 1 51.422 51.656 51.429 51.666 0 0 1-51.422 51.672H582.859A102.857 103.333 0 0 1 480 1590V763.328A102.857 103.333 0 0 1 582.859 660zm978.844 206.359A360 361.665 0 0 1 1920 1228.328a358.779 360.438 0 0 1-102.859 252.781v367.219a51.429 51.666 0 0 1-74.422 46.219L1560 1802.719l-182.719 91.828a51.429 51.666 0 0 1-74.422-46.219v-367.219a360 361.665 0 0 1 258.844-614.75zM1560 970a257.143 258.332 0 0 0-257.141 258.328A257.143 258.332 0 1 0 1560 970zm-771.422 51.672h257.141a51.429 51.666 0 0 1 51.422 51.656 51.429 51.666 0 0 1-51.422 51.672H788.578a51.429 51.666 0 0 1 0-103.328zm0 206.656h257.141a51.429 51.666 0 0 1 51.422 51.672 51.429 51.666 0 0 1-51.422 51.656H788.578a51.429 51.666 0 0 1 0-103.328zm617.141 326.75v209.688L1537 1698.781a51.429 51.666 0 0 1 46 0l131.281 65.984v-209.687a359.614 361.277 0 0 1-308.562 0z"/></svg>