<svg xmlns="http://www.w3.org/2000/svg" width="300" height="300" viewBox="0 0 2400 2400"><path d="M1200 0a1200 1200 0 1 0 0 2400 1200 1200 0 1 0 0-2400zm-10.062 480.641A700 700 0 1 1 891 1797.734l-229.187 76.391a107.692 107.692 0 0 1-136.219-136.234l76.391-229.172a700 700 0 0 1 587.953-1028.078zm145.406 118.266a592.308 592.308 0 0 0-628.156 877.359 53.846 53.846 0 0 1 4.438 44.031l-83.937 251.719 251.734-83.922a52.837 52.837 0 0 1 17.031-2.828 53.846 53.846 0 0 1 26.922 7.266 592.308 592.308 0 1 0 411.969-1093.625zm-330.734 419.266h430.781a53.846 53.846 0 0 1 0 107.688h-430.781a53.846 53.846 0 0 1 0-107.687zm0 215.391h430.781a53.846 53.846 0 0 1 0 107.688h-430.781a53.846 53.846 0 0 1 0-107.687z"/></svg>