<?xml version="1.0" encoding="UTF-8" standalone="no"?>
<svg
   width="300"
   height="300"
   fill="#000000"
   viewBox="0 0 400 400"
   version="1.1"
   id="svg10"
   sodipodi:docname="code.svg"
   inkscape:version="1.2.2 (b0a8486541, 2022-12-01)"
   xmlns:inkscape="http://www.inkscape.org/namespaces/inkscape"
   xmlns:sodipodi="http://sodipodi.sourceforge.net/DTD/sodipodi-0.dtd"
   xmlns="http://www.w3.org/2000/svg"
   xmlns:svg="http://www.w3.org/2000/svg">
  <defs
     id="defs14" />
  <sodipodi:namedview
     id="namedview12"
     pagecolor="#505050"
     bordercolor="#eeeeee"
     borderopacity="1"
     inkscape:showpageshadow="0"
     inkscape:pageopacity="0"
     inkscape:pagecheckerboard="0"
     inkscape:deskcolor="#505050"
     showgrid="false"
     inkscape:zoom="1.6149288"
     inkscape:cx="155.42481"
     inkscape:cy="136.84814"
     inkscape:window-width="1920"
     inkscape:window-height="1057"
     inkscape:window-x="-8"
     inkscape:window-y="-8"
     inkscape:window-maximized="1"
     inkscape:current-layer="svg10" />
  <path
     id="path185"
     style="fill:#ffffff;stroke-width:1.5491"
     d="M 200 0 A 200 200 0 0 0 0 200 A 200 200 0 0 0 200 400 A 200 200 0 0 0 400 200 A 200 200 0 0 0 200 0 z M 230.60938 104.1224 A 8 8 0 0 1 234.73438 104.48177 A 8 8 0 0 1 239.51823 114.73438 L 175.51823 290.73438 A 8 8 0 0 1 165.26562 295.51823 A 8 8 0 0 1 160.48177 285.26562 L 224.48177 109.26562 A 8 8 0 0 1 230.60938 104.1224 z M 136.72396 152.03385 A 8 8 0 0 1 142.14583 154.8776 A 8 8 0 0 1 141.1224 166.14583 L 100.4974 200 L 141.1224 233.85417 A 8 8 0 0 1 142.14583 245.11979 A 8 8 0 0 1 130.8776 246.14583 L 82.877604 206.14583 A 8.0008 8.0008 0 0 1 82.877604 193.85417 L 130.8776 153.85417 A 8 8 0 0 1 136.72396 152.03385 z M 263.27604 152.03385 A 8 8 0 0 1 269.11979 153.85417 L 317.11979 193.85417 A 8.0008 8.0008 0 0 1 317.11979 206.14583 L 269.11979 246.14583 A 8 8 0 0 1 257.85417 245.11979 A 8 8 0 0 1 258.88021 233.85417 L 299.50521 200 L 258.88021 166.14583 A 8 8 0 0 1 257.85417 154.8776 A 8 8 0 0 1 263.27604 152.03385 z " />
</svg>
