<?xml version="1.0" encoding="UTF-8" standalone="no"?>
<svg
   width="300"
   height="300"
   fill="#000000"
   viewBox="0 0 400 400"
   version="1.1"
   id="svg10"
   sodipodi:docname="graduation-cap.svg"
   inkscape:version="1.2.2 (b0a8486541, 2022-12-01)"
   xmlns:inkscape="http://www.inkscape.org/namespaces/inkscape"
   xmlns:sodipodi="http://sodipodi.sourceforge.net/DTD/sodipodi-0.dtd"
   xmlns="http://www.w3.org/2000/svg"
   xmlns:svg="http://www.w3.org/2000/svg">
  <defs
     id="defs14" />
  <sodipodi:namedview
     id="namedview12"
     pagecolor="#505050"
     bordercolor="#eeeeee"
     borderopacity="1"
     inkscape:showpageshadow="0"
     inkscape:pageopacity="0"
     inkscape:pagecheckerboard="0"
     inkscape:deskcolor="#505050"
     showgrid="false"
     inkscape:zoom="1.6149288"
     inkscape:cx="28.79384"
     inkscape:cy="143.65959"
     inkscape:window-width="1920"
     inkscape:window-height="1057"
     inkscape:window-x="-8"
     inkscape:window-y="-8"
     inkscape:window-maximized="1"
     inkscape:current-layer="svg10" />
  <path
     id="path1632"
     style="fill:#ffffff;stroke-width:1.62747"
     d="M 200 0 A 200 200 0 0 0 0 200 A 200 200 0 0 0 200 400 A 200 200 0 0 0 400 200 A 200 200 0 0 0 200 0 z M 200 88 A 8.0008584 8.0007978 0 0 1 203.76562 88.940104 L 323.76562 152.9401 A 8.0008584 8.0007978 0 0 1 323.76562 167.05729 L 300 179.73177 L 300 229.5 A 8.0008496 8.0008496 0 0 0 300 229.5026 A 8.0008496 8.0008496 0 0 0 300 229.50521 A 8.0008496 8.0008496 0 0 0 300 229.50781 A 8.0008496 8.0008496 0 0 0 300 229.51042 A 8.0008496 8.0008496 0 0 0 300 229.51302 A 8.0008496 8.0008496 0 0 0 300 229.51562 A 8.0008496 8.0008496 0 0 0 300 229.51823 A 8.0008496 8.0008496 0 0 0 300 229.52083 A 8.0008496 8.0008496 0 0 0 300 229.52344 A 8.0008496 8.0008496 0 0 0 300 229.52604 A 8.0008496 8.0008496 0 0 0 300 229.52865 A 8.0008496 8.0008496 0 0 0 300 229.53125 A 8.0008496 8.0008496 0 0 0 300 229.53385 C 299.98549 232.96771 298.84814 236.3046 296.76823 239.03646 C 292.9857 244.10743 283.56077 255.11497 268 264.97135 L 268 304 A 8.0000584 7.9999978 0 0 1 260 312 A 8.0000584 7.9999978 0 0 1 252 304 L 252 273.43229 C 238.01492 279.56356 220.79321 284 200 284 C 141.62711 284 110.89838 249.31453 103.23177 239.03646 C 101.15185 236.3046 100.0145 232.96771 100 229.53385 A 8.0008496 8.0008496 0 0 1 100 229.5 L 100 179.73177 L 76.234375 167.05729 A 8.0008584 8.0007978 0 0 1 76.234375 152.9401 L 196.23438 88.940104 A 8.0008584 8.0007978 0 0 1 200 88 z M 200 105.0651 L 97 160 L 111.89323 167.94271 A 8.0000496 8.0000496 0 0 1 112.0599 168.03125 L 200 214.93229 L 243 192 L 196.23438 167.05729 A 8.0000584 7.9999978 0 0 1 192.9401 156.23438 A 8.0000584 7.9999978 0 0 1 197.66927 152.34635 A 8.0000584 7.9999978 0 0 1 203.76562 152.9401 L 260 182.93229 L 287.9401 168.03125 A 8.0000496 8.0000496 0 0 1 288.10677 167.94271 L 303 160 L 200 105.0651 z M 116 188.26562 L 116 229.40104 A 8.0008496 8.0008496 0 0 1 116.01562 229.42188 C 121.80895 237.20392 147.8631 268 200 268 C 221.75277 268 238.90518 262.61823 252 255.80469 L 252 205.33333 L 203.76562 231.05729 A 8.0008584 8.0007978 0 0 1 196.23438 231.05729 L 116 188.26562 z M 284 188.26562 L 268 196.79948 L 268 245.51042 C 276.52095 238.78605 281.76096 232.4085 283.98438 229.42188 A 8.0008496 8.0008496 0 0 1 284 229.40104 L 284 188.26562 z " />
</svg>
