<svg xmlns="http://www.w3.org/2000/svg" width="300" height="300" viewBox="0 0 400 400"><path d="M200 0a200 200 0 1 0 0 400 200 200 0 1 0 0-400zm0 88a8.001 8.001 0 0 1 3.766.94l120 64a8.001 8.001 0 0 1 0 14.117L300 179.732V229.5a8.001 8.001 0 0 0 0 .003 8.001 8.001 0 0 0 0 .003 8.001 8.001 0 0 0 0 .003 8.001 8.001 0 0 0 0 .003 8.001 8.001 0 0 0 0 .003 8.001 8.001 0 0 0 0 .003 8.001 8.001 0 0 0 0 .003 8.001 8.001 0 0 0 0 .003 8.001 8.001 0 0 0 0 .003 8.001 8.001 0 0 0 0 .003 8.001 8.001 0 0 0 0 .003 8.001 8.001 0 0 0 0 .003 8.001 8.001 0 0 0 0 .003c-.015 3.434-1.152 6.771-3.232 9.503-3.783 5.071-13.207 16.079-28.768 25.935V304a8 8 0 0 1-16 0v-30.568C238.015 279.564 220.793 284 200 284c-58.373 0-89.102-34.685-96.768-44.964-2.08-2.732-3.217-6.069-3.232-9.503a8.001 8.001 0 0 1 0-.034v-49.768l-23.766-12.674a8.001 8.001 0 0 1 0-14.117l120-64A8.001 8.001 0 0 1 200 88zm0 17.065L97 160l14.893 7.943a8 8 0 0 1 .167.089L200 214.932 243 192l-46.766-24.943a8 8 0 0 1 1.435-14.711 8 8 0 0 1 6.096.594L260 182.932l27.94-14.901a8 8 0 0 1 .167-.089L303 160l-103-54.935zm-84 83.201v41.135a8.001 8.001 0 0 1 .016.021C121.809 237.204 147.863 268 200 268c21.753 0 38.905-5.382 52-12.195v-50.471l-48.234 25.724a8.001 8.001 0 0 1-7.531 0L116 188.266zm168 0l-16 8.534v48.711c8.521-6.724 13.761-13.102 15.984-16.089a8.001 8.001 0 0 1 .016-.021v-41.135z"/></svg>