<?xml version="1.0" encoding="UTF-8" standalone="no"?>
<svg
   width="300"
   height="300"
   fill="#000000"
   viewBox="0 0 400 400"
   version="1.1"
   id="svg14"
   sodipodi:docname="identification-card.svg"
   inkscape:version="1.2.2 (b0a8486541, 2022-12-01)"
   xmlns:inkscape="http://www.inkscape.org/namespaces/inkscape"
   xmlns:sodipodi="http://sodipodi.sourceforge.net/DTD/sodipodi-0.dtd"
   xmlns="http://www.w3.org/2000/svg"
   xmlns:svg="http://www.w3.org/2000/svg">
  <defs
     id="defs18" />
  <sodipodi:namedview
     id="namedview16"
     pagecolor="#505050"
     bordercolor="#eeeeee"
     borderopacity="1"
     inkscape:showpageshadow="0"
     inkscape:pageopacity="0"
     inkscape:pagecheckerboard="0"
     inkscape:deskcolor="#505050"
     showgrid="false"
     inkscape:zoom="1.6149288"
     inkscape:cx="134.99047"
     inkscape:cy="129.41747"
     inkscape:window-width="1920"
     inkscape:window-height="1057"
     inkscape:window-x="-8"
     inkscape:window-y="-8"
     inkscape:window-maximized="1"
     inkscape:current-layer="svg14" />
  <path
     id="path251"
     style="fill:#ffffff;stroke-width:1.56273"
     d="M 200 0 A 200 200 0 0 0 0 200 A 200 200 0 0 0 200 400 A 200 200 0 0 0 400 200 A 200 200 0 0 0 200 0 z M 113.33333 112 L 289.33333 112 C 298.05892 112 305.33333 119.27441 305.33333 128 L 305.33333 272 C 305.33333 280.72559 298.05892 288 289.33333 288 L 113.33333 288 C 104.60774 288 97.333333 280.72559 97.333333 272 L 97.333333 128 C 97.333333 119.27441 104.60774 112 113.33333 112 z M 113.33333 128 L 113.33333 272 L 289.33333 272 L 289.33333 128 L 113.33333 128 z M 165.43229 160 C 183.01059 160 197.43229 174.4217 197.43229 192 C 197.43229 200.89954 193.73333 208.98522 187.80208 214.80469 C 195.71405 220.152 201.69117 228.28625 204.18229 238.01562 A 8 8 0 0 1 198.41667 247.75 A 8 8 0 0 1 188.68229 241.98438 C 186.03063 231.62798 176.96397 224.38031 166.35938 223.97656 C 166.05051 223.98546 165.74319 224 165.43229 224 C 165.12139 224 164.81407 223.98556 164.50521 223.97656 C 153.9006 224.38031 144.83395 231.62798 142.18229 241.98438 A 8 8 0 0 1 132.44792 247.75 A 8 8 0 0 1 126.68229 238.01562 C 129.17341 228.28625 135.15314 220.152 143.0651 214.80469 C 137.13387 208.98522 133.43229 200.89954 133.43229 192 C 133.43229 174.4217 147.85399 160 165.43229 160 z M 165.43229 176 C 156.50101 176 149.43229 183.06872 149.43229 192 C 149.43229 200.63103 156.03994 207.50213 164.54427 207.95573 C 164.84053 207.94923 165.13481 207.9375 165.43229 207.9375 C 165.72932 207.9375 166.02451 207.94873 166.32031 207.95573 C 174.82464 207.50213 181.43229 200.63103 181.43229 192 C 181.43229 183.06872 174.36357 176 165.43229 176 z M 225.33333 176 L 265.33333 176 A 8 8 0 0 1 273.33333 184 A 8 8 0 0 1 265.33333 192 L 225.33333 192 A 8 8 0 0 1 217.33333 184 A 8 8 0 0 1 225.33333 176 z M 225.33333 208 L 265.33333 208 A 8 8 0 0 1 273.33333 216 A 8 8 0 0 1 265.33333 224 L 225.33333 224 A 8 8 0 0 1 217.33333 216 A 8 8 0 0 1 225.33333 208 z " />
</svg>
