<svg xmlns="http://www.w3.org/2000/svg" width="300" height="300" viewBox="0 0 400 400"><path d="M200 0a200 200 0 1 0 0 400 200 200 0 1 0 0-400zm-86.667 112h176c8.726 0 16 7.274 16 16v144c0 8.726-7.274 16-16 16h-176c-8.726 0-16-7.274-16-16V128c0-8.726 7.274-16 16-16zm0 16v144h176V128h-176zm52.099 32c17.578 0 32 14.422 32 32 0 8.9-3.699 16.985-9.63 22.805 7.912 5.347 13.889 13.482 16.38 23.211a8 8 0 1 1-15.5 3.969 23.91 23.91 0 0 0-22.323-18.008l-.927.023c-.311 0-.618-.014-.927-.023a23.91 23.91 0 0 0-22.323 18.008 8 8 0 1 1-15.5-3.969c2.491-9.729 8.471-17.864 16.383-23.211-5.931-5.819-9.633-13.905-9.633-22.805 0-17.578 14.422-32 32-32zm0 16c-8.931 0-16 7.069-16 16 0 8.631 6.608 15.502 15.112 15.956l.888-.018c.297 0 .592.011.888.018 8.504-.454 15.112-7.325 15.112-15.956 0-8.931-7.069-16-16-16zm59.901 0h40a8 8 0 1 1 0 16h-40a8 8 0 1 1 0-16zm0 32h40a8 8 0 1 1 0 16h-40a8 8 0 1 1 0-16z"/></svg>