<svg xmlns="http://www.w3.org/2000/svg" width="32" height="32" viewBox="0 0 24 24" preserveAspectRatio="xMidYMid"><path d="M12.001 1.5a10.127 10.126 0 0 0-1.368.094l.226 1.089a8.936 8.934 0 0 1 2.272.009l.21-1.1a10.127 10.126 0 0 0-1.34-.092zm2.476.311l-.211 1.108a8.936 8.934 0 0 1 2.186.909l.64-.951a10.127 10.126 0 0 0-2.614-1.066zm-4.98.004a10.127 10.126 0 0 0-2.632 1.086l.679.88a8.936 8.934 0 0 1 2.178-.883zm2.44 1.493a8.39 8.39 0 0 0-1.95.251C4.74 4.868 2.12 10.754 4.659 15.525c.151.274.282.189-.208 2.3l-.38 1.739c.01.007.005-.01 1.666-.343 2.095-.448 2.356-.265 2.356-.265 5.54 2.948 12.225-1.065 12.224-7.337-.002-4.728-3.892-8.355-8.379-8.311zm6.12.207l-.645.959a8.936 8.934 0 0 1 1.66 1.672l.992-.642a10.127 10.126 0 0 0-2.006-1.989zM5.9 3.546a10.127 10.126 0 0 0-1.94 1.929l.903.643a8.936 8.934 0 0 1 1.71-1.699zM3.31 6.433a10.127 10.126 0 0 0-1.122 2.7l1.126.148a8.936 8.934 0 0 1 .906-2.201zm17.399.032l-1.001.648a8.936 8.934 0 0 1 .898 2.22l1.203-.217a10.127 10.126 0 0 0-1.1-2.651zm1.322 3.787l-1.21.218a8.936 8.934 0 0 1-.023 2.353l1.225.234a10.127 10.126 0 0 0 .008-2.806zm-20.065.019a10.127 10.126 0 0 0-.001 2.703l1.134-.242a8.936 8.934 0 0 1-.007-2.312zm1.359 3.596l-1.14.244a10.127 10.126 0 0 0 .916 2.349l-.305.916 1.151.318.369-1.104a.596.596 0 0 0-.05-.487 8.936 8.934 0 0 1-.94-2.235zm17.239.09a8.936 8.934 0 0 1-.855 2.049l1.025.744a10.127 10.126 0 0 0 1.061-2.558zm-1.496 3.014a8.936 8.934 0 0 1-1.649 1.678l.661 1.073a10.127 10.126 0 0 0 2.011-2.009zm-16.64 1.503l-.482 1.446a1.39 1.39 0 0 0 1.758 1.758l1.473-.491-.394-1.125-1.455.485a.199.199 0 0 1-.251-.251l.502-1.504zm4.801.806a.616.615 0 0 0-.189.031l-1.16.386.394 1.125.891-.297a10.127 10.126 0 0 0 2.274.895l.182-1.183a8.936 8.934 0 0 1-2.096-.876.605.605 0 0 0-.298-.081zm9.231.019a8.936 8.934 0 0 1-2.217.937l.273 1.197a10.127 10.126 0 0 0 2.598-1.07zm-3.356 1.148a8.936 8.934 0 0 1-1.104.112 8.936 8.934 0 0 1-1.243-.088l-.182 1.178a10.127 10.126 0 0 0 2.804.006z"/></svg>