<?xml version="1.0" encoding="UTF-8" standalone="no"?>
<svg
   version="1.0"
   width="32"
   height="32"
   viewBox="0 0 24 24"
   preserveAspectRatio="xMidYMid"
   id="svg13255"
   xml:space="preserve"
   xmlns="http://www.w3.org/2000/svg"
   xmlns:svg="http://www.w3.org/2000/svg"><defs
     id="defs13259" /><path
     id="path18626"
     style="fill:#000000;stroke-width:0.0799331"
     d="m 12.001104,1.5 a 10.127162,10.1255 0 0 0 -1.368488,0.09429 l 0.226104,1.0891127 a 8.9357314,8.9342653 0 0 1 2.272266,0.00889 L 13.340984,1.5919549 A 10.127162,10.1255 0 0 0 12.001104,1.5 Z m 2.476118,0.3112659 -0.21127,1.1079711 a 8.9357314,8.9342653 0 0 1 2.186017,0.9090066 L 17.091713,2.8770708 A 10.127162,10.1255 0 0 0 14.477222,1.8112659 Z m -4.9804194,0.00424 A 10.127162,10.1255 0 0 0 6.8647223,2.9016501 L 7.5440918,3.7816279 A 8.9357314,8.9342653 0 0 1 9.7216339,2.8991074 Z M 11.936686,3.308481 C 11.295667,3.314791 10.642295,3.395978 9.9865173,3.5595704 4.7402972,4.868308 2.1196154,10.753972 4.6587841,15.52498 c 0.1513224,0.274323 0.2821447,0.189383 -0.2083032,2.29985 -0.3801455,1.738981 -0.380159,1.739401 -0.380159,1.739401 0.010032,0.0074 0.00516,-0.01047 1.6664264,-0.342624 2.0952006,-0.448123 2.3555436,-0.265288 2.3555436,-0.265288 5.5395481,2.947866 12.2250801,-1.06505 12.2237791,-7.337104 -0.002,-4.728395 -3.892266,-8.3547906 -8.379385,-8.3107357 z m 6.120259,0.2074384 -0.645466,0.9592245 a 8.9357314,8.9342653 0 0 1 1.659646,1.6715974 L 20.063054,5.5049264 A 10.127162,10.1255 0 0 0 18.056945,3.5159181 Z M 5.9001276,3.5462183 A 10.127162,10.1255 0 0 0 3.9599192,5.4748381 L 4.8632731,6.1174993 A 8.9357314,8.9342653 0 0 1 6.5735637,4.4183562 Z M 3.3102163,6.4327913 A 10.127162,10.1255 0 0 0 2.1881758,9.1326891 L 3.3138187,9.2807997 A 8.9357314,8.9342653 0 0 1 4.2195035,7.0794787 Z M 20.708945,6.4652097 19.707689,7.113168 A 8.9357314,8.9342653 0 0 1 20.60617,9.3329237 L 21.808947,9.1161612 A 10.127162,10.1255 0 0 0 20.708945,6.4652097 Z m 1.322289,3.7866793 -1.210193,0.218248 a 8.9357314,8.9342653 0 0 1 -0.02286,2.353459 l 1.225238,0.233925 a 10.127162,10.1255 0 0 0 0.0078,-2.805632 z m -20.0649235,0.01865 a 10.127162,10.1255 0 0 0 -0.00127,2.703077 l 1.1343313,-0.242402 a 8.9357314,8.9342653 0 0 1 -0.0072,-2.312352 z m 1.3585274,3.59598 -1.1404764,0.243673 a 10.127162,10.1255 0 0 0 0.9156443,2.348586 l -0.3053559,0.916207 1.1512834,0.318047 0.368504,-1.104158 A 0.59571542,0.59561766 0 0 0 4.26464,16.101529 8.9357314,8.9342653 0 0 1 3.3248383,13.866515 Z m 17.2391601,0.09046 a 8.9357314,8.9342653 0 0 1 -0.855464,2.048972 l 1.024567,0.743732 a 10.127162,10.1255 0 0 0 1.061435,-2.557932 z m -1.495627,3.014343 a 8.9357314,8.9342653 0 0 1 -1.649476,1.67753 l 0.661147,1.073432 a 10.127162,10.1255 0 0 0 2.010561,-2.008926 z M 2.428265,18.474474 1.9463914,19.920411 a 1.3900027,1.3897747 0 0 0 1.7583933,1.758048 L 5.1773174,21.187938 4.7829609,20.063229 3.3284402,20.547822 A 0.19857181,0.19853922 0 0 1 3.077332,20.296518 l 0.5017925,-1.504202 z m 4.8011469,0.805606 a 0.61557259,0.61547161 0 0 0 -0.188596,0.03073 l -1.1597599,0.386485 0.3943565,1.124711 0.8914872,-0.29707 a 10.127162,10.1255 0 0 0 2.2739599,0.895023 l 0.182451,-1.183402 a 8.9357314,8.9342653 0 0 1 -2.0959593,-0.87595 0.60465116,0.60455193 0 0 0 -0.2979394,-0.08052 z m 9.2310351,0.01928 a 8.9357314,8.9342653 0 0 1 -2.216534,0.937186 l 0.272933,1.196753 a 10.127162,10.1255 0 0 0 2.59839,-1.070468 z m -3.355526,1.14844 a 8.9357314,8.9342653 0 0 1 -1.103817,0.111879 8.9357314,8.9342653 0 0 1 -1.243039,-0.08836 l -0.181603,1.177896 a 10.127162,10.1255 0 0 0 2.804147,0.0065 z" /></svg>
