<svg xmlns="http://www.w3.org/2000/svg" width="300" height="300" viewBox="0 0 400 400"><path d="M200 0a200 200 0 1 0 0 400 200 200 0 1 0 0-400zm-40 100a8 8 0 0 1 8 8v16h56a8 8 0 1 1 0 16h-24.339c-1.855 24.24-12.043 46.175-27.716 62.943 13.499 9.906 29.802 15.948 47.185 16.906l21.714-43.427a8.001 8.001 0 0 1 14.313 0l56 112a8 8 0 1 1-14.312 7.156L283.055 268h-70.109l-13.789 27.578a8 8 0 1 1-14.312-7.156l26.594-53.19c-19.042-2.317-36.775-9.836-51.471-21.323C142.309 227.729 120.108 236 96 236a8 8 0 1 1 0-16c19.499 0 37.483-6.314 52.049-16.997a103.73 103.73 0 0 1-22.094-36.336 8 8 0 1 1 15.089-5.333c4.185 11.837 10.726 22.342 18.977 31.081 13.151-13.935 21.786-32.168 23.602-52.414H96a8 8 0 1 1 0-16h56v-16a8 8 0 0 1 8-8zm88 97.891L220.945 252h54.109L248 197.891z"/></svg>